<?xml version="1.0" encoding="utf-8"?>
<!-- Generator: Adobe Illustrator 26.0.1, SVG Export Plug-In . SVG Version: 6.00 Build 0)  -->
<svg version="1.1" id="ccs" xmlns="http://www.w3.org/2000/svg" xmlns:xlink="http://www.w3.org/1999/xlink" x="0px" y="0px"
	 viewBox="0 0 33 20.8" style="enable-background:new 0 0 33 20.8;" xml:space="preserve">
<style type="text/css">
	.st0{opacity:7.000000e-02;enable-background:new    ;}
	.st1{fill:#FFFFFF;}
	.st2{fill:#EB001B;}
	.st3{fill:#F79E1B;}
	.st4{fill:#FF5F00;}
</style>
<g id="Group_12" transform="translate(36.188)">
	<path id="Path_1" class="st0" d="M-5.8,0h-27.8c-1.4,0-2.6,1.1-2.6,2.5c0,0,0,0.1,0,0.1v15.6c0,1.4,1.2,2.6,2.6,2.6h27.8
		c1.4,0,2.6-1.1,2.6-2.5c0,0,0-0.1,0-0.1V2.6C-3.2,1.2-4.4,0-5.8,0z"/>
	<path id="Path_2" class="st1" d="M-5.8,0.9c1,0,1.7,0.8,1.7,1.7v15.6c0,1-0.8,1.7-1.7,1.7h-27.8c-1,0-1.7-0.8-1.7-1.7V2.6
		c0-1,0.8-1.7,1.7-1.7H-5.8"/>
	<circle id="Ellipse_3" class="st2" cx="-23.2" cy="10.4" r="6.1"/>
	<circle id="Ellipse_4" class="st3" cx="-16.2" cy="10.4" r="6.1"/>
	<path id="Path_3" class="st4" d="M-17.1,10.4c0-2-1-3.8-2.6-4.9c-1.6,1.1-2.6,3-2.6,4.9c0,2,1,3.8,2.6,4.9
		C-18.1,14.3-17.1,12.4-17.1,10.4z"/>
</g>
</svg>
