<svg width="503" height="25" viewBox="0 0 503 25" fill="none" xmlns="http://www.w3.org/2000/svg">
<path fill-rule="evenodd" clip-rule="evenodd" d="M403.881 19.7733V12.7304H407.516C409.006 12.7304 410.263 12.2312 411.288 11.2469L411.534 10.9973C413.406 8.95925 413.283 5.78448 411.288 3.89899C410.29 2.90079 408.924 2.36001 407.516 2.38773H401.681V19.7733H403.881ZM403.882 10.5951V4.52263H407.572C408.364 4.52263 409.116 4.82776 409.677 5.38232C410.866 6.5468 410.893 8.48783 409.745 9.69397C409.185 10.2902 408.392 10.6229 407.572 10.5951H403.882Z" fill="#3C4043"/>
<path fill-rule="evenodd" clip-rule="evenodd" d="M421.797 8.8055C420.854 7.93192 419.569 7.48828 417.943 7.48828C415.852 7.48828 414.281 8.26466 413.242 9.8037L415.183 11.0376C415.893 9.98387 416.863 9.45708 418.093 9.45708C418.872 9.45708 419.624 9.74816 420.211 10.2749C420.785 10.7741 421.113 11.4951 421.113 12.2576V12.7705C420.266 12.2991 419.2 12.0497 417.888 12.0497C416.358 12.0497 415.128 12.41 414.212 13.1449C413.297 13.8796 412.832 14.8503 412.832 16.0842C412.805 17.207 413.283 18.2746 414.13 18.9955C414.991 19.772 416.084 20.1601 417.369 20.1601C418.886 20.1601 420.088 19.4808 421.004 18.122H421.1V19.772H423.204V12.4378C423.204 10.8989 422.739 9.67891 421.797 8.8055ZM415.825 17.5814C415.374 17.2486 415.101 16.708 415.101 16.1256C415.101 15.4741 415.401 14.9334 415.989 14.5035C416.591 14.0737 417.342 13.8519 418.231 13.8519C419.461 13.838 420.418 14.1154 421.101 14.6699C421.101 15.6126 420.732 16.4306 420.007 17.1238C419.351 17.7893 418.463 18.1637 417.534 18.1637C416.919 18.1776 416.317 17.9695 415.825 17.5814Z" fill="#3C4043"/>
<path d="M435.284 7.87695L427.932 24.9991H425.663L428.396 19.0097L423.572 7.87695H425.964L429.449 16.4171H429.489L432.892 7.87695H435.284Z" fill="#3C4043"/>
<path d="M396.285 11.2037C396.285 10.5245 396.231 9.84515 396.122 9.17969H386.843V13.0199H392.159C391.94 14.2538 391.229 15.3629 390.191 16.0562V18.5518H393.361C395.22 16.8187 396.285 14.2538 396.285 11.2037Z" fill="#4285F4"/>
<path d="M386.843 20.9635C389.494 20.9635 391.735 20.0762 393.361 18.5512L390.191 16.0556C389.302 16.6657 388.168 17.0121 386.843 17.0121C384.274 17.0121 382.101 15.2514 381.322 12.8945H378.056V15.4733C379.723 18.8423 383.126 20.9635 386.843 20.9635Z" fill="#34A853"/>
<path d="M381.322 12.8949C380.912 11.661 380.912 10.3165 381.322 9.06875V6.50391H378.056C376.648 9.31817 376.648 12.6457 378.056 15.4601L381.322 12.8949Z" fill="#FBBC04"/>
<path d="M386.843 4.95191C388.25 4.92413 389.603 5.46481 390.614 6.44912L393.429 3.5932C391.639 1.90178 389.289 0.972884 386.843 1.0006C383.126 1.0006 379.723 3.13584 378.056 6.50483L381.322 9.08339C382.101 6.7126 384.274 4.95191 386.843 4.95191Z" fill="#EA4335"/>
<path d="M312.802 5.07657H308.202C307.888 5.07657 307.62 5.32107 307.571 5.65377L305.71 18.2741C305.678 18.498 305.821 18.7076 306.03 18.7428C306.05 18.746 306.069 18.7478 306.09 18.7478H308.286C308.601 18.7478 308.868 18.5026 308.917 18.1699L309.419 14.7658C309.468 14.4335 309.736 14.1882 310.05 14.1879H311.506C314.536 14.1879 316.285 12.6192 316.742 9.51017C316.948 8.14997 316.75 7.08127 316.155 6.33277C315.501 5.51107 314.342 5.07617 312.803 5.07617L312.802 5.07657ZM313.332 9.68597C313.081 11.4519 311.82 11.4519 310.6 11.4519H309.906L310.393 8.15387C310.423 7.95457 310.583 7.80757 310.772 7.80757H311.09C311.92 7.80757 312.704 7.80757 313.109 8.31437C313.35 8.61647 313.424 9.06567 313.332 9.68597ZM326.551 9.62897H324.349C324.16 9.62897 324 9.77597 323.97 9.97527L323.873 10.6344L323.719 10.3956C323.242 9.65497 322.179 9.40767 321.117 9.40767C318.683 9.40767 316.604 11.3803 316.199 14.1473C315.989 15.5274 316.288 16.8474 317.02 17.7677C317.691 18.614 318.652 18.9667 319.794 18.9667C321.755 18.9667 322.843 17.6175 322.843 17.6175L322.745 18.2724C322.711 18.4962 322.854 18.7065 323.063 18.7421C323.083 18.7457 323.103 18.7471 323.122 18.7471H325.107C325.421 18.7471 325.689 18.5019 325.738 18.1692L326.929 10.1027C326.962 9.87987 326.82 9.66997 326.612 9.63437C326.592 9.63077 326.572 9.62897 326.551 9.62897ZM323.481 14.216C323.268 15.5623 322.27 16.4663 320.996 16.4663C320.356 16.4663 319.845 16.2467 319.517 15.8306C319.191 15.4175 319.067 14.8295 319.171 14.1747C319.37 12.8398 320.385 11.9063 321.639 11.9063C322.265 11.9063 322.773 12.1288 323.108 12.5483C323.444 12.9722 323.577 13.5641 323.481 14.216ZM338.283 9.62897H336.069C335.857 9.62937 335.659 9.74177 335.54 9.92897L332.487 14.7406L331.193 10.1169C331.111 9.82727 330.862 9.62897 330.58 9.62897H328.404C328.192 9.62827 328.021 9.81157 328.02 10.0383C328.02 10.0838 328.027 10.1287 328.04 10.1717L330.479 17.8271L328.186 21.2892C328.064 21.4739 328.104 21.7301 328.277 21.8611C328.342 21.9106 328.42 21.9369 328.499 21.9369H330.71C330.92 21.9369 331.116 21.8276 331.235 21.6433L338.597 10.2728C338.718 10.0867 338.675 9.83117 338.501 9.70197C338.437 9.65427 338.36 9.62867 338.282 9.62867L338.283 9.62897Z" fill="#253B80"/>
<path d="M345.611 5.07687H341.011C340.696 5.07687 340.429 5.32177 340.38 5.65417L338.52 18.2745C338.487 18.498 338.629 18.7076 338.837 18.7429C338.857 18.7461 338.877 18.7478 338.897 18.7478H341.258C341.478 18.7478 341.665 18.5759 341.7 18.3436L342.227 14.7662C342.276 14.4338 342.544 14.1886 342.858 14.1883H344.314C347.345 14.1883 349.093 12.6195 349.55 9.51047C349.756 8.15027 349.558 7.08157 348.963 6.33317C348.31 5.51147 347.151 5.07687 345.611 5.07687ZM346.142 9.68627C345.891 11.4522 344.63 11.4522 343.41 11.4522H342.716L343.204 8.15427C343.233 7.95497 343.393 7.80797 343.582 7.80797H343.9C344.729 7.80797 345.514 7.80797 345.918 8.31477C346.16 8.61687 346.233 9.06597 346.141 9.68627H346.142ZM359.36 9.62937H357.159C356.97 9.62867 356.809 9.77597 356.781 9.97567L356.683 10.6348L356.529 10.396C356.052 9.65537 354.989 9.40797 353.928 9.40797C351.494 9.40797 349.416 11.3807 349.01 14.1477C348.801 15.5278 349.099 16.8478 349.83 17.7681C350.503 18.6144 351.462 18.9671 352.605 18.9671C354.566 18.9671 355.653 17.6179 355.653 17.6179L355.555 18.2727C355.522 18.4966 355.664 18.7069 355.873 18.7425C355.893 18.7461 355.914 18.7478 355.934 18.7475H357.918C358.232 18.7475 358.5 18.5023 358.549 18.1695L359.74 10.1031C359.772 9.87887 359.628 9.66887 359.419 9.63437C359.399 9.63117 359.38 9.62897 359.36 9.62937ZM356.29 14.2164C356.078 15.5627 355.078 16.4666 353.804 16.4666C353.166 16.4666 352.654 16.247 352.325 15.831C352 15.4178 351.877 14.8299 351.98 14.1751C352.18 12.8402 353.194 11.9067 354.448 11.9067C355.074 11.9067 355.582 12.1291 355.917 12.5487C356.254 12.9726 356.387 13.564 356.289 14.216L356.29 14.2164ZM361.957 5.42317L360.069 18.2745C360.036 18.498 360.178 18.7076 360.387 18.7429C360.407 18.7461 360.427 18.7478 360.447 18.7478H362.344C362.66 18.7478 362.928 18.503 362.976 18.1699L364.838 5.55027C364.871 5.32637 364.728 5.11637 364.519 5.08117C364.499 5.07797 364.48 5.07617 364.46 5.07617H362.334C362.146 5.07687 361.986 5.22387 361.956 5.42317H361.957Z" fill="#179BD7"/>
<path d="M286.608 21.2004L286.96 18.8096L286.176 18.79H282.435L285.035 1.14994C285.051 1.03854 285.141 0.956336 285.246 0.957036H291.555C293.649 0.957036 295.095 1.42324 295.849 2.34394C296.203 2.77564 296.428 3.22694 296.538 3.72334C296.652 4.24434 296.654 4.86684 296.542 5.62624L296.534 5.68174V6.16824L296.888 6.38283C297.158 6.52913 297.401 6.72734 297.605 6.96724C297.907 7.33624 298.103 7.80574 298.186 8.36194C298.271 8.93424 298.243 9.61504 298.103 10.3854C297.942 11.272 297.68 12.0442 297.328 12.6759C297.017 13.2421 296.599 13.7322 296.101 14.1151C295.633 14.4706 295.076 14.7404 294.448 14.9134C293.838 15.0831 293.144 15.1689 292.382 15.1689H291.891C291.539 15.1689 291.198 15.3041 290.931 15.5468C290.663 15.792 290.486 16.1305 290.43 16.5024L290.394 16.7177L289.772 20.9313L289.744 21.0861C289.737 21.1353 289.724 21.1595 289.705 21.1762C289.687 21.1922 289.664 21.2011 289.641 21.2014H286.609L286.608 21.2004Z" fill="#253B80"/>
<path d="M297.223 5.73828C297.204 5.86718 297.183 5.99888 297.158 6.13408C296.326 10.7047 293.48 12.2834 289.844 12.2834H287.993C287.549 12.2834 287.174 12.629 287.105 13.098L286.157 19.5288L285.889 21.3517C285.848 21.6282 286.024 21.8876 286.283 21.9314C286.307 21.9357 286.332 21.9374 286.357 21.9374H289.64C290.028 21.9374 290.359 21.6353 290.42 21.225L290.452 21.0467L291.07 16.8497L291.11 16.6195C291.17 16.2077 291.501 15.9056 291.89 15.9056H292.381C295.562 15.9056 298.052 14.524 298.779 10.5257C299.083 8.85548 298.926 7.46078 298.121 6.47998C297.866 6.17638 297.562 5.92508 297.223 5.73828Z" fill="#179BD7"/>
<path d="M296.353 5.36672C296.087 5.28452 295.817 5.22042 295.543 5.17452C295.004 5.08592 294.458 5.04322 293.912 5.04712H288.967C288.578 5.04712 288.247 5.34992 288.187 5.76102L287.135 12.8897L287.105 13.0975C287.173 12.6285 287.55 12.2825 287.993 12.2829H289.844C293.48 12.2829 296.326 10.7031 297.158 6.13362C297.183 5.99842 297.204 5.86672 297.222 5.73792C297.003 5.61472 296.774 5.51152 296.538 5.42932C296.476 5.40722 296.414 5.38662 296.352 5.36672H296.353Z" fill="#222D65"/>
<path d="M288.187 5.7611C288.246 5.3497 288.577 5.0464 288.967 5.0479H293.912C294.497 5.0479 295.044 5.0888 295.543 5.1753C295.881 5.2322 296.214 5.3169 296.54 5.4294C296.785 5.5166 297.013 5.6194 297.224 5.7379C297.471 4.0489 297.222 2.899 296.368 1.8577C295.427 0.711403 293.728 0.220703 291.555 0.220703H285.246C284.802 0.220703 284.424 0.566203 284.355 1.036L281.727 18.8579C281.68 19.1743 281.882 19.4715 282.178 19.5216C282.206 19.5263 282.234 19.5288 282.262 19.5288H286.157L287.135 12.8901L288.187 5.7611Z" fill="#253B80"/>
<path d="M179.316 14.7836H177.297C176.879 14.7836 176.531 14.5154 176.531 14.1801C176.531 13.7779 176.879 13.5767 177.297 13.5767H180.987L181.823 11.7679H177.297C175.417 11.7679 174.372 12.8392 174.372 14.2472C174.372 15.6552 175.417 16.5924 177.018 16.5924H179.037C179.456 16.5924 179.804 16.8606 179.804 17.1958C179.804 17.531 179.525 17.7992 179.037 17.7992H174.581V19.6081H179.037C180.917 19.6081 181.962 18.5367 181.962 17.0617C181.962 15.5867 180.987 14.7836 179.316 14.7836ZM171.17 14.7836H169.151C168.733 14.7836 168.385 14.5154 168.385 14.1801C168.385 13.7779 168.733 13.5767 169.151 13.5767H172.841L173.677 11.7679H169.151C167.271 11.7679 166.228 12.8392 166.228 14.2472C166.228 15.6552 167.271 16.5924 168.874 16.5924H170.893C171.311 16.5924 171.659 16.8606 171.659 17.1958C171.659 17.531 171.381 17.7992 170.893 17.7992H166.437V19.6081H170.893C172.773 19.6081 173.816 18.5367 173.816 17.0617C173.886 15.5881 172.912 14.7836 171.17 14.7836ZM158.291 19.6737H165.254V17.8649H160.519V16.5924H165.184V14.7836H160.519V13.5111H165.254V11.7022H158.291V19.6751V19.6737ZM153.974 15.1188H151.676V13.5111H153.974C154.601 13.5111 154.949 13.9134 154.949 14.3156C154.949 14.785 154.601 15.1202 153.974 15.1202M157.176 14.2486C157.176 12.7079 156.061 11.7022 154.251 11.7022H149.447V19.6751H151.675V16.929H152.511L155.018 19.6751H157.664L154.948 16.7949C156.34 16.4597 157.176 15.5225 157.176 14.2486ZM145.271 15.2543H142.903V13.5125H145.271C145.898 13.5125 146.246 13.9148 146.246 14.3841C146.246 14.8534 145.967 15.2557 145.271 15.2557M145.549 11.705H140.745V19.6779H142.973V17.0645H145.549C147.429 17.0645 148.544 15.9261 148.544 14.3841C148.474 12.7764 147.361 11.7036 145.549 11.7036M140.328 11.7036H137.475L135.386 14.1159L133.227 11.7036H130.303L133.992 15.6565L130.233 19.6765H133.087L135.315 17.1302L137.543 19.6765H140.466L136.707 15.5895L140.327 11.7036H140.328ZM122.993 19.6765H129.954V17.8677H125.15V16.5952H129.815V14.7863H125.15V13.5139H129.954V11.705H122.993V19.6779V19.6765ZM178.48 6.34137L175.069 1.51817H172.284V9.42407H174.512V4.39837L177.992 9.42267H180.639V1.51817H178.48V6.34277V6.34137ZM165.669 6.07317L166.852 3.39267L168.035 6.07317H165.668H165.669ZM165.39 1.51677L161.77 9.48967H164.207L164.904 7.88197H168.733L169.43 9.48967H171.937L168.247 1.51817H165.392L165.39 1.51677ZM158.15 5.53677V5.40267C158.15 4.19727 158.847 3.39267 160.239 3.39267H162.676V1.45117H160.03C157.314 1.45117 155.922 3.12587 155.922 5.33707V5.47117C155.922 7.95047 157.523 9.35697 159.96 9.35697H160.727L161.631 7.54817H160.309C158.986 7.61517 158.15 6.87767 158.15 5.53817M152.581 9.42407H154.809V1.51817H152.581V9.42407ZM148.264 4.86767H145.966V3.25997H148.264C148.891 3.25997 149.239 3.66227 149.239 4.06457C149.239 4.53387 148.891 4.86907 148.264 4.86907M151.466 4.06457C151.466 2.52387 150.351 1.51817 148.542 1.51817H143.738V9.49107H145.966V6.67797H146.802L149.309 9.42547H152.025L149.241 6.54527C150.633 6.27707 151.469 5.27277 151.469 4.06597M135.316 9.42547H142.278V7.61657H137.543V6.34417H142.138V4.53527H137.543V3.26277H142.278V1.51817H135.316V9.42407V9.42547ZM128.285 6.47677L126.404 1.51817H122.993V9.42407H125.151V3.72937L127.31 9.42407H129.259L131.417 3.72937V9.42407H133.646V1.51817H130.165L128.285 6.47537V6.47677ZM116.31 6.07457L117.493 3.39407L118.676 6.07457H116.31ZM116.03 1.51817L112.41 9.42407H114.847L115.544 7.81637H119.373L120.069 9.42407H122.576L118.885 1.51817H116.03Z" fill="#006FCF"/>
<path d="M200.542 5.83984H197.236V17.4216H200.542C202.285 17.4216 203.568 17.0002 204.671 16.0789C205.993 14.9775 206.775 13.3334 206.775 11.6307C206.755 8.22384 204.209 5.83984 200.542 5.83984ZM203.188 14.5362C202.487 15.1775 201.565 15.4575 200.102 15.4575H199.501V7.80394H200.102C201.565 7.80394 202.447 8.06394 203.188 8.74524C203.969 9.44664 204.431 10.5079 204.431 11.6307C204.431 12.7334 203.969 13.8348 203.188 14.5362Z" fill="#231F20"/>
<path d="M210.059 5.83984H207.795V17.4216H210.059V5.83984Z" fill="#231F20"/>
<path d="M215.57 10.2898C214.207 9.78836 213.827 9.44836 213.827 8.82706C213.827 8.10566 214.528 7.54426 215.51 7.54426C216.191 7.54426 216.732 7.82426 217.332 8.48566L218.515 6.94286C217.554 6.10156 216.391 5.66016 215.108 5.66016C213.064 5.66016 211.501 7.08286 211.501 8.96696C211.501 10.5698 212.223 11.3711 214.347 12.1325C215.228 12.4525 215.69 12.6539 215.91 12.7939C216.371 13.0938 216.591 13.5152 216.591 13.9966C216.591 14.938 215.85 15.6193 214.848 15.6193C213.767 15.6193 212.904 15.0779 212.384 14.0766L210.922 15.4793C211.963 17.0021 213.206 17.6834 214.928 17.6834C217.272 17.6834 218.915 16.1207 218.915 13.8766C218.915 12.0539 218.154 11.2311 215.568 10.2898H215.57Z" fill="#231F20"/>
<path d="M219.618 11.6295C219.618 15.0364 222.283 17.6604 225.729 17.6604C226.69 17.6604 227.532 17.4605 228.554 16.9791V14.3136C227.653 15.2149 226.852 15.5763 225.829 15.5763C223.565 15.5763 221.942 13.9336 221.942 11.5895C221.942 9.24549 223.605 7.62269 225.729 7.62269C226.81 7.62269 227.613 8.00409 228.554 8.92549V6.25999C227.573 5.75859 226.752 5.55859 225.769 5.55859C222.362 5.57859 219.618 8.26409 219.618 11.6295Z" fill="#231F20"/>
<path d="M246.447 13.6148L243.362 5.83984H240.897L245.826 17.723H247.028L252.038 5.83984H249.594L246.447 13.6148Z" fill="#231F20"/>
<path d="M253.059 17.4216H259.452V15.4589H255.303V12.3321H259.292V10.3694H255.303V7.80394H259.452V5.83984H253.059V17.4216Z" fill="#231F20"/>
<path d="M268.388 9.26664C268.388 7.10254 266.905 5.83984 264.3 5.83984H260.953V17.4216H263.217V12.7734H263.517L266.642 17.4216H269.428L265.781 12.552C267.444 12.1921 268.387 11.0293 268.387 9.26664H268.388ZM263.86 11.1707H263.198V7.66394H263.9C265.303 7.66394 266.064 8.24534 266.064 9.38664C266.064 10.5279 265.303 11.1693 263.86 11.1693V11.1707Z" fill="#231F20"/>
<path d="M235.446 17.8213C238.844 17.8213 241.597 15.0674 241.597 11.6704C241.597 8.27333 238.844 5.51953 235.446 5.51953C232.049 5.51953 229.296 8.27333 229.296 11.6704C229.296 15.0674 232.049 17.8213 235.446 17.8213Z" fill="url(#paint0_linear_5010_65)"/>
<path opacity="0.65" d="M235.446 17.8213C238.844 17.8213 241.597 15.0674 241.597 11.6704C241.597 8.27333 238.844 5.51953 235.446 5.51953C232.049 5.51953 229.296 8.27333 229.296 11.6704C229.296 15.0674 232.049 17.8213 235.446 17.8213Z" fill="url(#paint1_linear_5010_65)"/>
<path fill-rule="evenodd" clip-rule="evenodd" d="M13.8157 19.8907H9.2021L5.74248 6.76697C5.57827 6.16327 5.22961 5.62957 4.71674 5.37807C3.43681 4.74597 2.02641 4.24287 0.487793 3.98917V3.48387H7.9199C8.9457 3.48387 9.715 4.24287 9.8432 5.12437L11.6383 14.591L16.2496 3.48387H20.735L13.8157 19.8907ZM23.2993 19.8907H18.9421L22.53 3.48387H26.8872L23.2993 19.8907ZM32.5243 8.02907C32.6525 7.14537 33.4218 6.64017 34.3193 6.64017C35.7297 6.51327 37.2661 6.76697 38.5483 7.39697L39.3176 3.86447C38.0354 3.35917 36.625 3.10547 35.3451 3.10547C31.1161 3.10547 28.0389 5.37807 28.0389 8.53217C28.0389 10.9316 30.2186 12.1915 31.7572 12.9505C33.4218 13.7073 34.0629 14.2125 33.9347 14.9693C33.9347 16.1045 32.6525 16.6098 31.3726 16.6098C29.834 16.6098 28.2953 16.2314 26.8872 15.5993L26.1179 19.1339C27.6565 19.7639 29.3211 20.0176 30.8597 20.0176C35.6015 20.1423 38.5483 17.8719 38.5483 14.4641C38.5483 10.1726 32.5243 9.92107 32.5243 8.02907ZM53.7972 19.8907L50.3376 3.48387H46.6215C45.8522 3.48387 45.0829 3.98917 44.8264 4.74597L38.42 19.8907H42.9054L43.8007 17.4935H49.3118L49.8247 19.8907H53.7972ZM47.2626 7.90227L48.5425 14.0858H44.9547L47.2626 7.90227Z" fill="#172B85"/>
<path fill-rule="evenodd" clip-rule="evenodd" d="M83.0231 18.9095C81.2616 20.3943 78.9766 21.2907 76.4798 21.2907C70.9085 21.2907 66.3921 16.828 66.3921 11.3231C66.3921 5.81807 70.9085 1.35547 76.4798 1.35547C78.9766 1.35547 81.2616 2.25177 83.0231 3.73657C84.7846 2.25177 87.0696 1.35547 89.5665 1.35547C95.1378 1.35547 99.6541 5.81807 99.6541 11.3231C99.6541 16.828 95.1378 21.2907 89.5665 21.2907C87.0696 21.2907 84.7846 20.3943 83.0231 18.9095Z" fill="#ED0006"/>
<path fill-rule="evenodd" clip-rule="evenodd" d="M83.0229 18.9096C85.1919 17.0813 86.5672 14.3609 86.5672 11.3231C86.5672 8.28527 85.1919 5.56477 83.0229 3.73657C84.7844 2.25177 87.0694 1.35547 89.5662 1.35547C95.1375 1.35547 99.654 5.81807 99.654 11.3231C99.654 16.828 95.1375 21.2907 89.5662 21.2907C87.0694 21.2907 84.7844 20.3944 83.0229 18.9096Z" fill="#F9A000"/>
<path fill-rule="evenodd" clip-rule="evenodd" d="M83.0232 18.9092C85.1922 17.0809 86.5675 14.3605 86.5675 11.3227C86.5675 8.28493 85.1922 5.56453 83.0232 3.73633C80.8543 5.56453 79.479 8.28493 79.479 11.3227C79.479 14.3605 80.8543 17.0809 83.0232 18.9092Z" fill="#FF5E00"/>
<path fill-rule="evenodd" clip-rule="evenodd" d="M457.232 4.09425C456.576 4.90481 455.526 5.54428 454.476 5.45288C454.345 4.35673 454.859 3.19212 455.46 2.47288C456.117 1.63939 457.265 1.04567 458.195 1C458.304 2.14178 457.878 3.26076 457.232 4.09425ZM466.968 2.35865V20.1588H469.615V14.0732H473.279C476.627 14.0732 478.978 11.6755 478.978 8.20445C478.978 4.73355 476.67 2.35865 473.367 2.35865H466.968ZM472.667 4.68785H469.615V11.7555H472.656C474.964 11.7555 476.276 10.4652 476.276 8.216C476.276 5.96663 474.964 4.68785 472.667 4.68785ZM483.814 20.2959C485.476 20.2959 487.019 19.4167 487.719 18.0237H487.773V20.1589H490.224V11.2987C490.224 8.72976 488.255 7.07416 485.225 7.07416C482.413 7.07416 480.335 8.75269 480.259 11.059H482.643C482.84 9.96284 483.814 9.24351 485.148 9.24351C486.767 9.24351 487.675 10.0315 487.675 11.4815V12.4633L484.371 12.6689C481.298 12.8629 479.635 14.176 479.635 16.4595C479.635 18.766 481.352 20.2959 483.814 20.2959ZM482.216 16.3911C482.216 17.4756 483.113 18.1836 484.524 18.1836C486.318 18.1836 487.675 16.9962 487.675 15.3292V14.3243L484.732 14.5185C483.08 14.6213 482.216 15.2721 482.216 16.3911ZM493.494 25C496.076 25 497.29 23.9725 498.351 20.8555L503 7.24558H500.309L497.191 17.7612H497.137L494.019 7.24558H491.252L495.737 20.2046L495.496 20.9924C495.091 22.3283 494.435 22.842 493.265 22.842C493.057 22.842 492.652 22.8193 492.488 22.7965V24.9315C492.641 24.9772 493.297 25 493.494 25ZM455.733 6.23968C456.415 5.9602 457.259 5.61423 458.184 5.66966C458.775 5.71536 460.481 5.89816 461.575 7.58791C461.57 7.59187 461.559 7.5993 461.542 7.61052C461.272 7.79431 459.553 8.96123 459.573 11.2644C459.594 14.0084 461.735 15.0318 462.015 15.1656C462.034 15.1743 462.045 15.1807 462.045 15.1807C462.044 15.1844 462.042 15.1916 462.039 15.2025C461.983 15.3913 461.615 16.6351 460.776 17.9095C460 19.0969 459.201 20.2615 457.932 20.2843C457.335 20.2955 456.933 20.114 456.514 19.9251C456.074 19.7263 455.615 19.5194 454.891 19.5194C454.142 19.5194 453.662 19.7319 453.2 19.9365C452.799 20.1142 452.411 20.286 451.872 20.3072C450.647 20.3529 449.717 19.0512 448.941 17.8638C447.355 15.4662 446.14 11.1045 447.781 8.15876C448.58 6.68596 450.035 5.76107 451.599 5.7383C452.281 5.72526 452.932 5.99517 453.501 6.2311C453.936 6.41126 454.322 6.57179 454.64 6.57179C454.922 6.57179 455.294 6.41951 455.733 6.23968Z" fill="black"/>
<defs>
<linearGradient id="paint0_linear_5010_65" x1="238.599" y1="16.6071" x2="234.337" y2="9.93203" gradientUnits="userSpaceOnUse">
<stop stop-color="#F89F20"/>
<stop offset="0.25" stop-color="#F79A20"/>
<stop offset="0.53" stop-color="#F68D20"/>
<stop offset="0.62" stop-color="#F58720"/>
<stop offset="0.72" stop-color="#F48120"/>
<stop offset="1" stop-color="#F37521"/>
</linearGradient>
<linearGradient id="paint1_linear_5010_65" x1="237.926" y1="16.5157" x2="231.695" y2="4.33823" gradientUnits="userSpaceOnUse">
<stop stop-color="#F58720"/>
<stop offset="0.36" stop-color="#E16F27"/>
<stop offset="0.7" stop-color="#D4602C"/>
<stop offset="0.98" stop-color="#D05B2E"/>
</linearGradient>
</defs>
</svg>
