<?xml version="1.0" encoding="utf-8"?>
<!-- Generator: Adobe Illustrator 26.0.1, SVG Export Plug-In . SVG Version: 6.00 Build 0)  -->
<svg version="1.1" id="ccs" xmlns="http://www.w3.org/2000/svg" xmlns:xlink="http://www.w3.org/1999/xlink" x="0px" y="0px"
	 viewBox="0 0 33 20.8" style="enable-background:new 0 0 33 20.8;" xml:space="preserve">
<style type="text/css">
	.st0{opacity:7.000000e-02;enable-background:new    ;}
	.st1{fill:#FFFFFF;}
	.st2{fill:#142688;}
</style>
<g id="Group_13">
	<path id="Path_4" class="st0" d="M30.4,0H2.6C1.2,0,0,1.1,0,2.5c0,0,0,0.1,0,0.1v15.6c0,1.4,1.2,2.6,2.6,2.6h27.8
		c1.4,0,2.6-1.1,2.6-2.5c0,0,0-0.1,0-0.1V2.6C33,1.2,31.8,0,30.4,0z"/>
	<path id="Path_5" class="st1" d="M30.4,0.9c1,0,1.7,0.8,1.7,1.7v15.6c0,1-0.8,1.7-1.7,1.7H2.6c-1,0-1.7-0.8-1.7-1.7V2.6
		c0-1,0.8-1.7,1.7-1.7H30.4"/>
	<path id="Path_6" class="st2" d="M24.6,8.8h-0.3c-0.4,0.8-0.7,1.7-0.9,2.6h1.6C25,10.5,24.8,9.6,24.6,8.8z M27.1,13.9h-1.5
		c-0.1,0-0.1,0-0.2-0.1L25.3,13l-0.1-0.2h-2.1c-0.1,0-0.2,0-0.2,0.2l-0.3,0.8c0,0,0,0.1-0.1,0.1c0,0,0,0,0,0h-1.8l0.2-0.4l2.5-5.9
		c0-0.4,0.3-0.6,0.7-0.6h1.3c0.1,0,0.2,0,0.2,0.2l1.2,5.6c0.1,0.3,0.2,0.6,0.2,1C27.1,13.8,27.1,13.8,27.1,13.9z M15.4,13.6l0.3-1.6
		c0.1,0,0.1,0,0.2,0.1c0.6,0.3,1.2,0.4,1.8,0.3c0.2,0,0.4-0.1,0.6-0.2c0.4-0.2,0.4-0.6,0.1-1c-0.2-0.2-0.5-0.3-0.7-0.4
		c-0.3-0.2-0.7-0.4-1-0.6c-0.8-0.6-0.9-1.7-0.3-2.5c0.1-0.1,0.1-0.1,0.2-0.2c0.5-0.3,0.8-0.7,1.5-0.7c0.9,0,1.8,0,2.7,0.2H21
		c-0.1,0.5-0.2,1-0.3,1.5c-0.4-0.2-0.8-0.3-1.3-0.3c-0.3,0-0.5,0-0.8,0.1c-0.1,0-0.3,0.1-0.3,0.2c-0.2,0.2-0.2,0.4,0,0.6
		c0,0,0,0,0,0l0.4,0.3c0.3,0.2,0.6,0.3,1,0.5c0.5,0.3,0.8,0.7,1,1.2c0.2,0.8-0.1,1.6-0.8,2c-0.3,0.3-0.8,0.5-1.2,0.5
		c-1,0.1-2,0-3-0.2C15.5,13.7,15.5,13.7,15.4,13.6z M12.4,13.9c0-0.3,0.1-0.6,0.2-0.9c0.4-1.9,0.9-3.9,1.2-5.8
		c0.1-0.2,0.1-0.3,0.3-0.3h1.6c-0.2,0.9-0.4,1.9-0.6,2.8c-0.3,1.3-0.5,2.6-0.9,3.9c0,0.2-0.1,0.2-0.3,0.2 M4.3,7.1
		c0-0.1,0.2-0.2,0.3-0.2h3c0.4,0,0.8,0.3,0.9,0.7l0.8,3.8c0,0.1,0,0.1,0.1,0.2c0,0,0-0.1,0.1-0.1c0,0,0,0,0,0l1.8-4.4
		c-0.1-0.1,0-0.2,0.1-0.2h1.8c0,0.1,0,0.1-0.1,0.2l-2.7,6.3c-0.1,0.2-0.1,0.3-0.2,0.3s-0.3,0-0.4,0H8.4c-0.1,0-0.2,0-0.2-0.2
		L6.9,8.2C6.6,8,6.4,7.8,6.1,7.7C5.6,7.5,5,7.3,4.4,7.3L4.3,7.1z"/>
</g>
</svg>
