<?xml version="1.0" encoding="utf-8"?>
<!-- Generator: Adobe Illustrator 26.0.1, SVG Export Plug-In . SVG Version: 6.00 Build 0)  -->
<svg version="1.1" id="ccs" xmlns="http://www.w3.org/2000/svg" xmlns:xlink="http://www.w3.org/1999/xlink" x="0px" y="0px"
	 viewBox="0 0 33 20.8" style="enable-background:new 0 0 33 20.8;" xml:space="preserve">
<style type="text/css">
	.st0{opacity:7.000000e-02;enable-background:new    ;}
	.st1{fill:#006FCF;}
	.st2{fill:#FFFFFF;}
</style>
<g id="Group_14" transform="translate(72.809)">
	<path id="Path_7" class="st0" d="M-42.4,0h-27.8c-1.4,0-2.6,1.1-2.6,2.5c0,0,0,0.1,0,0.1v15.6c0,1.4,1.2,2.6,2.6,2.6h27.8
		c1.4,0,2.6-1.1,2.6-2.5c0,0,0-0.1,0-0.1V2.6C-39.8,1.2-41,0-42.4,0z"/>
	<path id="Path_8" class="st1" d="M-42.4,0.9c1,0,1.7,0.8,1.7,1.7v15.6c0,1-0.8,1.7-1.7,1.7h-27.8c-1,0-1.7-0.8-1.7-1.7V2.6
		c0-1,0.8-1.7,1.7-1.7H-42.4"/>
	<path id="Path_9" class="st2" d="M-65,8.9l0.7,1.6h-1.3L-65,8.9z M-51,8.9h-2.6v0.7h2.5v1h-2.5v0.8h2.6v0.6l1.8-1.9L-51,8.2V8.9z
		 M-63.3,6.9h3.5l0.8,1.6l0.7-1.6h9l1,1l1-1h4.2l-3,3.4l3,3.3h-4.2l-1-1l-1,1H-64l-0.4-1h-1l-0.4,1h-3.4l2.8-6.7H-63.3z M-55.7,7.9
		h-1.9l-1.3,3l-1.4-3h-2v4.2l-1.8-4.2h-1.7l-2.1,4.8h1.4l0.4-1h2.3l0.4,1h2.3V9.3l1.6,3.4h1l1.5-3.4v3.4h1.3L-55.7,7.9L-55.7,7.9z
		 M-47.6,10.3l2.2-2.4H-47l-1.4,1.5l-1.3-1.5h-5.1v4.8h5l1.4-1.5l1.3,1.5h1.6L-47.6,10.3z"/>
</g>
</svg>
