<?xml version="1.0" encoding="utf-8"?>
<!-- Generator: Adobe Illustrator 26.0.1, SVG Export Plug-In . SVG Version: 6.00 Build 0)  -->
<svg version="1.1" id="ccs" xmlns="http://www.w3.org/2000/svg" xmlns:xlink="http://www.w3.org/1999/xlink" x="0px" y="0px"
	 viewBox="0 0 33 20.8" style="enable-background:new 0 0 33 20.8;" xml:space="preserve">
<style type="text/css">
	.st0{opacity:7.000000e-02;enable-background:new    ;}
	.st1{fill:#FFFFFF;}
	.st2{fill:#EDA024;}
	.st3{fill:#494949;}
</style>
<g id="Group_15" transform="translate(109.518)">
	<path id="Path_10" class="st0" d="M-79.1,0h-27.8c-1.4,0-2.6,1.1-2.6,2.5c0,0,0,0.1,0,0.1v15.6c0,1.4,1.2,2.6,2.6,2.6h27.8
		c1.4,0,2.6-1.1,2.6-2.5c0,0,0-0.1,0-0.1V2.6C-76.6,1.2-77.7,0-79.1,0z"/>
	<path id="Path_11" class="st1" d="M-79.1,0.9c1,0,1.7,0.8,1.7,1.7v15.6c0,1-0.8,1.7-1.7,1.7h-27.8c-1,0-1.7-0.8-1.7-1.7V2.6
		c0-1,0.8-1.7,1.7-1.7H-79.1"/>
	<path id="Path_12" class="st2" d="M-77.4,14.8v3.5c0,1-0.8,1.7-1.7,1.7h-10.2C-82.5,18.4-79,16-77.4,14.8z"/>
	<path id="Path_13" class="st3" d="M-101.7,9.5h17.4v1.7h-17.4V9.5z"/>
	<path id="Path_14" class="st2" d="M-90.4,10.4c0,1.4-1.1,2.6-2.5,2.6c0,0-0.1,0-0.1,0c-1.4,0-2.6-1.2-2.6-2.6
		c0-1.4,1.2-2.6,2.6-2.6C-91.6,7.8-90.5,8.9-90.4,10.4C-90.4,10.3-90.4,10.4-90.4,10.4z"/>
</g>
</svg>
