<svg xmlns="http://www.w3.org/2000/svg" version="1.1" viewBox="0 0 41 20.3" width="100%" height="100%">
  <path fill="#000000" fill-rule="evenodd" d="M19.5,5.9v4.1h2.5c.6,0,1.1-.2,1.5-.6.4-.4.6-.9.6-1.4s-.2-1-.6-1.4c-.4-.4-.9-.6-1.5-.6h-2.5ZM19.5,11.5v4.7h-1.5V4.5h4c1,0,1.9.3,2.6,1,.7.7,1.1,1.5,1.1,2.5s-.4,1.8-1.1,2.5c-.7.7-1.6,1-2.6,1h-2.5s0,0,0,0ZM27.2,13.7c0,.4.2.7.5,1,.3.3.7.4,1.2.4.6,0,1.2-.2,1.7-.7.5-.5.7-1,.7-1.6-.5-.4-1.1-.6-2-.6s-1.1.1-1.5.4c-.4.3-.6.7-.6,1.1M29.1,7.9c1.1,0,2,.3,2.6.9.6.6,1,1.4,1,2.4v4.9h-1.4v-1.1h0c-.6.9-1.5,1.4-2.5,1.4s-1.6-.3-2.2-.8c-.6-.5-.9-1.2-.9-2s.3-1.5.9-2,1.5-.7,2.5-.7,1.6.2,2.2.5v-.3c0-.5-.2-1-.6-1.3-.4-.4-.9-.6-1.5-.5-.8,0-1.5.4-2,1.1l-1.3-.8c.7-1,1.8-1.6,3.2-1.6M41,8.2l-5,11.5h-1.6l1.9-4-3.3-7.5h1.6l2.4,5.7h0l2.3-5.8h1.6Z"></path>
  <path fill="#4285f4" fill-rule="evenodd" d="M13.4,10.4c0-.5,0-.9-.1-1.4h-6.3v2.6h3.6c-.2.8-.6,1.6-1.3,2v1.7h2.2c1.3-1.2,2-2.9,2-4.9"></path>
  <path fill="#34a853" fill-rule="evenodd" d="M7,17c1.8,0,3.3-.6,4.5-1.6l-2.2-1.7c-.6.4-1.4.6-2.3.6-1.8,0-3.2-1.2-3.8-2.8H1v1.7c1.1,2.3,3.5,3.7,6,3.7"></path>
  <path fill="#fabb05" fill-rule="evenodd" d="M3.2,11.6c-.3-.8-.3-1.7,0-2.6v-1.7H1c-.5.9-.7,2-.7,3,0,1.1.3,2.1.7,3l2.2-1.7h0Z"></path>
  <path fill="#e94235" fill-rule="evenodd" d="M7,6.2c1,0,1.9.3,2.6,1h0s1.9-1.9,1.9-1.9c-1.2-1.1-2.7-1.7-4.5-1.7-2.5,0-4.9,1.4-6,3.7l2.2,1.7c.5-1.6,2-2.8,3.8-2.8"></path>
</svg>
